<?xml version="1.0" encoding="utf-8"?>
<!-- Generator: Adobe Illustrator 16.0.0, SVG Export Plug-In . SVG Version: 6.00 Build 0)  -->
<!DOCTYPE svg PUBLIC "-//W3C//DTD SVG 1.1//EN" "http://www.w3.org/Graphics/SVG/1.1/DTD/svg11.dtd" [
	<!ENTITY ns_flows "http://ns.adobe.com/Flows/1.0/">
	<!ENTITY ns_extend "http://ns.adobe.com/Extensibility/1.0/">
	<!ENTITY ns_ai "http://ns.adobe.com/AdobeIllustrator/10.0/">
	<!ENTITY ns_graphs "http://ns.adobe.com/Graphs/1.0/">
]>
<svg version="1.1" id="Capa_1" xmlns:x="&ns_extend;" xmlns:i="&ns_ai;" xmlns:graph="&ns_graphs;"
	 xmlns="http://www.w3.org/2000/svg" xmlns:xlink="http://www.w3.org/1999/xlink" xmlns:a="http://ns.adobe.com/AdobeSVGViewerExtensions/3.0/"
	 x="0px" y="0px" width="243px" height="77px" viewBox="0 0 243 77" enable-background="new 0 0 243 77" xml:space="preserve">
<path fill="#EEE7E7" d="M98.122,57.877"/>
<g>
	<path fill="#C85444" d="M114.693,66.465l-4.754,2.03h-5.012l10.105-4.213L114.693,66.465z M114.155,70.45l-0.358,2.218
		l-8.869-4.173h5.012L114.155,70.45z"/>
</g>
<path fill="#9A999E" d="M131.32,64.503c-0.265-0.168-0.579-0.304-0.947-0.399c-0.368-0.101-0.771-0.148-1.204-0.148
	c-0.764,0-1.445,0.145-2.06,0.434c-0.069,0.023-0.139,0.053-0.217,0.093c-0.067,0.034-0.131,0.067-0.206,0.106
	c-0.068,0.042-0.154,0.096-0.219,0.159c-0.268-0.239-0.604-0.431-1.025-0.574c-0.416-0.148-0.88-0.218-1.413-0.218
	c-0.75,0-1.429,0.145-2.042,0.434c-0.028-0.104-0.121-0.187-0.274-0.245c-0.153-0.066-0.354-0.104-0.608-0.119
	c-0.255-0.017-0.549-0.017-0.892,0c-0.346,0.016-0.708,0.044-1.098,0.085l-1.27,8.718h2.975l0.916-6.65
	c0.01-0.18,0.135-0.33,0.363-0.46c0.232-0.129,0.502-0.195,0.811-0.195h0.11c0.307,0,0.544,0.066,0.726,0.195
	c0.182,0.13,0.26,0.28,0.237,0.46l-0.949,6.65h2.896l0.934-6.65c0-0.092,0.038-0.18,0.108-0.265
	c0.065-0.085,0.153-0.151,0.266-0.208c0.106-0.061,0.226-0.104,0.365-0.134c0.141-0.03,0.276-0.049,0.414-0.049h0.164
	c0.288,0,0.53,0.066,0.716,0.195c0.185,0.13,0.271,0.28,0.254,0.46l-0.726,5.051c-0.051,0.363-0.019,0.672,0.122,0.933
	c0.134,0.258,0.325,0.46,0.586,0.605c0.262,0.142,0.554,0.224,0.894,0.239c0.337,0.015,0.683-0.042,1.046-0.178l1.012-6.995
	c0.03-0.258-0.027-0.502-0.162-0.729C131.785,64.875,131.587,64.676,131.32,64.503z"/>
<path fill="#9A999E" d="M141.352,64.503c-0.254-0.168-0.566-0.304-0.934-0.399c-0.373-0.101-0.781-0.148-1.223-0.148h-2.371
	c-0.44,0-0.864,0.048-1.264,0.148c-0.404,0.096-0.758,0.231-1.077,0.399c-0.316,0.173-0.573,0.372-0.782,0.601
	c-0.205,0.227-0.32,0.471-0.357,0.729l-0.033,0.404h2.854l0.064-0.06c0.019-0.18,0.141-0.33,0.377-0.46
	c0.228-0.129,0.487-0.195,0.771-0.195h0.776c0.308,0,0.548,0.066,0.735,0.195c0.187,0.13,0.269,0.28,0.246,0.46l-0.066,0.373
	c-0.023,0.177-0.144,0.327-0.376,0.46c-0.231,0.128-0.497,0.191-0.789,0.191h-1.889c-0.418,0-0.827,0.048-1.213,0.146
	c-0.395,0.101-0.738,0.236-1.042,0.404c-0.311,0.173-0.566,0.375-0.767,0.605c-0.194,0.235-0.321,0.481-0.361,0.739l-0.317,2.034
	c-0.026,0.251,0.02,0.489,0.149,0.715c0.13,0.229,0.34,0.431,0.604,0.6c0.27,0.169,0.59,0.306,0.957,0.403
	c0.368,0.101,0.776,0.148,1.218,0.148h0.985c0.33,0,0.665-0.034,0.995-0.108c0.335-0.075,0.666-0.171,0.989-0.296
	c-0.093,0.423,0.869,0.504,2.884,0.234l0.981-6.995c0.04-0.258,0-0.502-0.137-0.729C141.808,64.875,141.613,64.676,141.352,64.503z
	 M138.465,70.807c-0.026,0.176-0.152,0.319-0.377,0.434c-0.218,0.116-0.478,0.173-0.775,0.173h-1.046
	c-0.303,0-0.553-0.057-0.744-0.173c-0.2-0.114-0.278-0.258-0.264-0.434l0.172-1.397c0.046-0.178,0.176-0.331,0.396-0.458
	c0.227-0.131,0.481-0.197,0.78-0.197h0.204c0.368,0,0.722-0.026,1.051-0.088c0.335-0.053,0.641-0.145,0.92-0.266L138.465,70.807z"/>
<path fill="#9A999E" d="M151.169,64.724c0.028-0.109-0.027-0.202-0.176-0.272c-0.242-0.124-0.534-0.238-0.884-0.342
	c-0.349-0.102-0.726-0.154-1.12-0.154h-0.733c-0.712,0-1.376,0.145-1.986,0.434c-0.105-0.216-0.417-0.342-0.929-0.372
	c-0.506-0.032-1.162,0-1.951,0.093l-1.267,8.718h2.971l0.921-6.65c0.006-0.18,0.13-0.33,0.357-0.46
	c0.232-0.129,0.508-0.195,0.81-0.195h0.758c0.162,0,0.302,0.013,0.432,0.021c0.125,0.021,0.232,0.072,0.32,0.153
	c0.089,0.081,0.232,0.118,0.419,0.104c0.189-0.005,0.396-0.048,0.612-0.114c0.221-0.068,0.429-0.156,0.646-0.269
	c0.214-0.119,0.4-0.233,0.54-0.351C151.049,64.944,151.137,64.834,151.169,64.724z"/>
<path fill="#9A999E" d="M160.279,64.109h-2.738l-2.942,2.734l0.509-3.399c0.056-0.387,0.026-0.733-0.078-1.041
	c-0.103-0.312-0.28-0.563-0.513-0.748c-0.237-0.187-0.534-0.295-0.889-0.319c-0.353-0.029-0.753,0.056-1.194,0.239l-1.594,11.266
	h2.909l0.447-3.138l0.786-0.729l0.914,2.297c0.716,1.729,1.953,2.248,3.699,1.556l-2.415-5.873L160.279,64.109z"/>
<path fill="#9A999E" d="M168.823,64.497c-0.25-0.167-0.562-0.298-0.933-0.394c-0.372-0.101-0.776-0.148-1.225-0.148h-2.369
	c-0.445,0-0.864,0.048-1.273,0.148c-0.403,0.096-0.766,0.231-1.08,0.399c-0.319,0.173-0.58,0.372-0.779,0.601
	c-0.2,0.227-0.313,0.471-0.349,0.729l-0.712,5.097c-0.027,0.264,0.024,0.508,0.162,0.74c0.136,0.235,0.34,0.435,0.6,0.607
	c0.262,0.169,0.582,0.306,0.948,0.403c0.372,0.1,0.777,0.147,1.218,0.147h2.363c0.44,0,0.85-0.055,1.218-0.166
	c0.376-0.105,0.706-0.249,1.009-0.435c0.291-0.181,0.539-0.381,0.747-0.606c0.211-0.22,0.363-0.452,0.471-0.691
	c0.161-0.332,0.228-0.589,0.177-0.766c-0.047-0.185-0.192-0.295-0.437-0.339c-0.249-0.039-0.588-0.01-1.023,0.081
	c-0.43,0.093-0.938,0.25-1.518,0.465v0.282c-0.046,0.167-0.186,0.311-0.43,0.434c-0.238,0.125-0.508,0.186-0.793,0.186h-0.755
	c-0.302,0-0.556-0.061-0.74-0.186c-0.191-0.123-0.277-0.267-0.256-0.434l0.298-2.113h5.792l0.377-2.751
	c0.041-0.248,0-0.485-0.126-0.711C169.28,64.86,169.088,64.659,168.823,64.497z M166.524,66.982h-2.92l0.139-0.806
	c0.016-0.18,0.13-0.33,0.368-0.46c0.228-0.129,0.497-0.195,0.804-0.195h0.758c0.287,0,0.52,0.066,0.72,0.195
	c0.195,0.13,0.282,0.28,0.273,0.46L166.524,66.982z"/>
<path fill="#9A999E" d="M175.653,65.662l0.241-1.553h-1.098l0.416-2.582c-0.322-0.092-0.652-0.104-1.004-0.044
	c-0.363,0.061-0.686,0.179-0.996,0.35c-0.298,0.172-0.563,0.39-0.777,0.662c-0.219,0.271-0.349,0.569-0.391,0.899l-0.126,0.715
	h-1.045l-0.232,1.553h1.088l-0.798,5.267c-0.03,0.264,0.025,0.508,0.17,0.74c0.13,0.235,0.336,0.435,0.59,0.607
	c0.258,0.169,0.571,0.306,0.939,0.403c0.371,0.1,0.771,0.147,1.215,0.147h0.7c0.177,0,0.358-0.01,0.531-0.024
	c0.176-0.013,0.333-0.05,0.501-0.101l0.219-1.431h-0.144h-0.804c-0.313,0-0.555-0.061-0.741-0.186
	c-0.18-0.123-0.263-0.267-0.228-0.434l0.693-4.99H175.653z"/>
<path fill="#9A999E" d="M180.496,62.046c-0.138-0.206-0.495-0.487-1.117-0.491c-0.653-0.006-1.287,0.129-1.287,0.129l-0.205,1.727
	h2.874c0,0,0.057-0.308,0.011-0.659C180.728,62.41,180.642,62.262,180.496,62.046z"/>
<path fill="#9A999E" d="M180.436,64.724c-0.098-0.262-0.266-0.458-0.506-0.58c-0.238-0.127-0.536-0.188-0.894-0.188
	c-0.362,0-0.763,0.053-1.204,0.154l-1.264,8.731h2.91l1.003-7.07C180.552,65.338,180.533,64.986,180.436,64.724z"/>
<path fill="#9A999E" d="M189.496,64.503c-0.271-0.168-0.582-0.304-0.944-0.399c-0.368-0.101-0.762-0.148-1.196-0.148h-0.729
	c-0.716,0-1.379,0.145-1.993,0.434c-0.027-0.143-0.13-0.253-0.303-0.32c-0.162-0.065-0.382-0.103-0.646-0.113
	c-0.264-0.014-0.562,0.003-0.892,0.037c-0.336,0.036-0.674,0.076-1.032,0.117l-1.265,8.718h2.965l0.922-6.65
	c0.01-0.18,0.135-0.33,0.366-0.46c0.228-0.129,0.498-0.195,0.804-0.195h0.762c0.294,0,0.532,0.066,0.722,0.195
	c0.189,0.13,0.284,0.28,0.273,0.46l-0.741,5.095c-0.063,0.372-0.044,0.691,0.067,0.955c0.108,0.266,0.289,0.465,0.531,0.601
	c0.24,0.136,0.535,0.202,0.887,0.21c0.362,0.005,0.759-0.065,1.196-0.21l0.979-6.995c0.036-0.258-0.014-0.502-0.145-0.729
	C189.951,64.875,189.756,64.676,189.496,64.503z"/>
<path fill="#9A999E" d="M200.075,65.313l0.173-1.204c-0.716-0.041-1.345-0.051-1.875-0.024c-0.533,0.027-0.886,0.128-1.073,0.304
	c-0.269-0.143-0.562-0.253-0.859-0.327c-0.312-0.072-0.646-0.106-1.023-0.106h-0.725c-0.441,0-0.859,0.048-1.264,0.148
	c-0.401,0.096-0.758,0.231-1.075,0.399c-0.316,0.173-0.576,0.372-0.779,0.601c-0.211,0.227-0.326,0.471-0.359,0.729l-0.73,5.299
	c-0.027,0.251,0.019,0.489,0.159,0.715c0.124,0.229,0.325,0.431,0.59,0.6c0.279,0.169,0.596,0.306,0.964,0.403
	c0.37,0.101,0.771,0.148,1.212,0.148h0.712c0.376,0,0.72-0.034,1.045-0.108c0.335-0.075,0.66-0.171,0.982-0.296l-0.252,1.552
	c-0.024,0.178-0.144,0.328-0.364,0.459s-0.487,0.197-0.789,0.197h-0.776c-0.116,0-0.238-0.017-0.362-0.048
	c-0.13-0.033-0.237-0.07-0.321-0.107c-0.967-0.367-1.641-0.438-2.012-0.224c-0.373,0.211-0.474,0.699-0.308,1.468
	c0.265,0.142,0.563,0.25,0.911,0.315c0.34,0.067,0.692,0.103,1.064,0.103h2.405c0.444,0,0.863-0.048,1.264-0.143
	c0.398-0.091,0.752-0.222,1.067-0.383c0.313-0.168,0.564-0.365,0.759-0.588c0.195-0.219,0.312-0.469,0.339-0.739l0.116-0.78
	 M199.258,71.024l0.549-3.78 M196.389,70.807c-0.032,0.176-0.159,0.319-0.376,0.434c-0.214,0.116-0.48,0.173-0.801,0.173h-0.771
	c-0.306,0-0.558-0.057-0.747-0.173c-0.197-0.114-0.284-0.258-0.265-0.434l0.692-4.63c0.014-0.18,0.138-0.33,0.371-0.46
	c0.227-0.129,0.484-0.195,0.771-0.195h0.811c0.291,0,0.535,0.066,0.725,0.195c0.19,0.13,0.28,0.28,0.271,0.46L196.389,70.807z"/>
<polygon fill="#C85444" points="202.915,65.313 202.641,67.244 206.624,68.951 202.102,71.024 201.729,73.675 211.649,68.951 "/>
<path fill="#EEE7E7" d="M83.624,24.289l-0.133,0.959c0.493,0.295,0.846,0.326,0.846,0.326
	C84.046,25.143,83.815,24.718,83.624,24.289z"/>
<g>
	<path fill="#C85444" d="M43.192,48.802c-0.153,1.217-0.72,2.381-1.701,3.495c-0.977,1.114-2.227,2.088-3.742,2.922
		c-1.525,0.839-3.263,1.494-5.221,1.976c-1.961,0.48-4.021,0.718-6.188,0.718H14.754c-2.176,0-4.151-0.237-5.957-0.718
		c-1.803-0.481-3.364-1.137-4.681-1.976c-1.309-0.834-2.286-1.808-2.935-2.922c-0.646-1.114-0.893-2.278-0.735-3.495L1.3,42.803
		h14.147l-0.623,4.402c-0.098,0.867,0.325,1.574,1.273,2.127c0.958,0.56,2.18,0.839,3.673,0.839h3.793
		c1.542,0,2.839-0.279,3.904-0.839c1.056-0.553,1.664-1.26,1.813-2.127l0.925-6.149c0.057-0.807-0.395-1.517-1.348-2.125
		c-0.954-0.608-2.101-0.911-3.44-0.911H17.45c-2.162,0-4.132-0.24-5.913-0.722c-1.771-0.479-3.292-1.141-4.558-1.974
		c-1.261-0.839-2.201-1.799-2.822-2.888c-0.617-1.089-0.852-2.263-0.696-3.531l0.545-6c0.151-1.265,0.729-2.453,1.739-3.567
		c1.003-1.116,2.276-2.089,3.826-2.925c1.548-0.837,3.3-1.494,5.252-1.976c1.962-0.478,4.025-0.722,6.187-0.722h10.361
		c2.111,0,4.059,0.244,5.834,0.722c1.775,0.482,3.3,1.138,4.56,1.976c1.265,0.836,2.231,1.809,2.9,2.925
		c0.67,1.114,0.93,2.302,0.776,3.567c-0.106,1.115-0.53,1.929-1.282,2.428c-0.745,0.51-1.763,0.816-3.049,0.913
		c-1.292,0.104-2.785,0.012-4.486-0.262c-1.701-0.279-3.556-0.651-5.564-1.104l0.074-0.304c0.103-0.861-0.293-1.606-1.198-2.241
		c-0.899-0.634-2.097-0.945-3.595-0.945h-2.546c-1.395,0-2.66,0.312-3.789,0.945c-1.14,0.635-1.73,1.38-1.78,2.241l-0.54,1.822
		c-0.046,0.86,0.414,1.609,1.394,2.242c0.977,0.631,2.131,0.95,3.473,0.95h7.73c2.165,0,4.147,0.236,5.955,0.719
		c1.809,0.48,3.346,1.14,4.639,1.974c1.283,0.833,2.263,1.821,2.932,2.962c0.675,1.136,0.931,2.342,0.773,3.604L43.192,48.802z"/>
	<path fill="#C85444" d="M74.81,49.485l-1.083,6.988c-0.771,0.25-1.581,0.417-2.434,0.494c-0.847,0.076-1.707,0.112-2.584,0.112
		h-3.404c-2.161,0-4.151-0.238-5.95-0.723c-1.809-0.479-3.337-1.139-4.606-1.973c-1.26-0.835-2.227-1.823-2.896-2.964
		c-0.67-1.143-0.948-2.34-0.851-3.605l3.942-25.746h-5.332l1.161-7.592h5.1l0.619-3.494c0.204-1.619,0.841-3.087,1.896-4.406
		c1.056-1.314,2.328-2.392,3.825-3.226c1.493-0.838,3.105-1.407,4.829-1.71c1.729-0.307,3.365-0.227,4.909,0.225l-2.008,12.611
		h5.331l-1.155,7.592H68.86l-3.402,24.377c-0.153,0.811,0.218,1.519,1.12,2.126c0.903,0.609,2.106,0.913,3.6,0.913h3.942H74.81z"/>
	<path fill="#C85444" d="M136.946,2.099c1.905-0.913,3.723-1.333,5.447-1.253c1.722,0.073,3.181,0.545,4.368,1.402
		c1.18,0.863,2.074,2.065,2.666,3.608c0.59,1.547,0.733,3.332,0.428,5.354l-6.499,45.947c-1.804,1.011-3.544,1.565-5.217,1.668
		c-1.668,0.103-3.142-0.214-4.401-0.948c-1.269-0.733-2.231-1.848-2.905-3.339c-0.67-1.493-0.85-3.309-0.539-5.435L136.946,2.099z"
		/>
	<path fill="#C85444" d="M192.373,57.08c-9.854,1.315-14.541,0.938-14.075-1.139c-1.6,0.604-3.208,1.088-4.831,1.441
		c-1.626,0.354-3.257,0.529-4.907,0.529h-4.797c-2.162,0-4.144-0.237-5.946-0.718c-1.802-0.481-3.36-1.137-4.676-1.976
		c-1.315-0.834-2.301-1.808-2.941-2.922c-0.642-1.114-0.888-2.278-0.735-3.495l1.548-9.95c0.204-1.263,0.795-2.468,1.779-3.604
		c0.978-1.141,2.213-2.13,3.705-2.962c1.501-0.834,3.199-1.494,5.104-1.974c1.904-0.483,3.889-0.719,5.955-0.719h9.199
		c1.44,0,2.729-0.319,3.862-0.95c1.139-0.633,1.751-1.382,1.854-2.242l0.311-1.822c0.108-0.861-0.295-1.606-1.199-2.241
		c-0.901-0.634-2.1-0.945-3.591-0.945h-3.795c-1.391,0-2.649,0.312-3.784,0.945c-1.133,0.635-1.751,1.38-1.854,2.241l-0.312,0.304
		h-13.913l0.158-1.976c0.149-1.265,0.729-2.453,1.737-3.567c1.005-1.116,2.284-2.089,3.827-2.925
		c1.543-0.837,3.299-1.494,5.257-1.976c1.957-0.478,4.018-0.722,6.183-0.722h11.602c2.157,0,4.138,0.244,5.941,0.722
		c1.807,0.482,3.337,1.138,4.606,1.976c1.26,0.836,2.212,1.809,2.854,2.925c0.646,1.114,0.868,2.302,0.661,3.567L192.373,57.08z
		 M181.082,35.435c-1.391,0.609-2.896,1.054-4.523,1.328c-1.626,0.282-3.332,0.419-5.142,0.419h-1.004
		c-1.444,0-2.704,0.318-3.787,0.951c-1.08,0.632-1.725,1.38-1.93,2.239l-0.85,6.833c-0.104,0.867,0.319,1.574,1.274,2.127
		c0.95,0.56,2.179,0.839,3.667,0.839h5.106c1.438,0,2.706-0.279,3.786-0.839c1.082-0.553,1.699-1.26,1.854-2.127L181.082,35.435z"/>
	<path fill="#C85444" d="M230.942,13.716c1.954,0,3.786,0.255,5.488,0.761c1.695,0.506,3.142,1.064,4.327,1.67
		c0.726,0.354,1.004,0.794,0.852,1.327c-0.16,0.533-0.581,1.089-1.273,1.674c-0.7,0.582-1.581,1.151-2.632,1.708
		c-1.056,0.56-2.111,1-3.171,1.329c-1.056,0.331-2.05,0.517-2.979,0.569c-0.92,0.051-1.618-0.127-2.081-0.532
		c-0.414-0.404-0.927-0.647-1.551-0.723c-0.611-0.072-1.309-0.108-2.081-0.108h-3.713c-1.498,0-2.809,0.312-3.943,0.945
		c-1.134,0.635-1.729,1.38-1.776,2.241l-4.48,32.503h-14.535l6.185-42.603c3.867-0.456,7.044-0.609,9.542-0.456
		c2.504,0.153,4.007,0.761,4.527,1.822c2.983-1.419,6.232-2.127,9.733-2.127H230.942z"/>
	<path fill="#C85444" d="M129.31,18.001c-0.68-1.168-1.691-2.194-3.051-3.075c-1.362-0.882-2.97-1.575-4.844-2.078
		c-1.868-0.506-3.923-0.759-6.145-0.759h-12.449c-2.278,0-4.443,0.253-6.511,0.759c-2.059,0.502-3.901,1.196-5.532,2.078
		c-1.063,0.575-1.994,1.221-2.813,1.924c0.21,3.999,1.818,4.812,1.818,4.812c4.532-1.662,8.476-0.208,10.92,1.102
		c0.258-0.226,0.256-1.056,1.058-1.603c1.13-0.769,2.524-0.998,3.994-0.998h4.141c1.525,0,2.771,0.33,3.752,0.998
		c0.973,0.668,1.431,1.452,1.381,2.358l-0.168,1.941c3.634-0.874,6.198-2.149,6.198-2.149c1.072,2.149-3.008,7.234-7.538,9.942
		l-1.993,14.086c-0.158,0.906-0.8,1.654-1.909,2.238c-1.112,0.591-2.484,0.881-4.11,0.881h-3.983c-0.558,0-1.476-0.032-1.95-0.102
		c0.609,3.087,2.558,5.969,4.102,8.253h5.085c2.172,0,4.258-0.252,6.266-0.761c2.008-0.502,3.812-1.196,5.411-2.073
		c1.602-0.881,2.915-1.906,3.952-3.076c1.021-1.176,1.627-2.401,1.786-3.68l3.902-27.262
		C130.243,20.428,129.991,19.179,129.31,18.001z"/>
</g>
<path fill="#EEE7E7" d="M82.76,30.535l-0.042,0.34c0.311-0.022,0.493-0.08,0.493-0.08C83.053,30.711,82.913,30.627,82.76,30.535z"/>
<path fill="#9A999E" d="M120.391,24.367c0,0-5.055,2.212-8.375,2.898c-2.899,0.603-6.219,0.99-8.423,0.328
	c0,0-1.436-2.925-4.651-4.647c-2.316-1.242-5.565-1.858-9.874-0.278c0,0-2.171-0.625-2.366-4.428
	c-0.093-1.708,0.212-4.062,1.288-7.286c0,0-7.341,6.744-4.367,13.334c0.192,0.43,0.422,0.854,0.712,1.286
	c0,0-0.353-0.031-0.846-0.326c-1.215-0.717-3.271-3.052-2.877-10.566c0,0-6.527,10.804,2.147,15.853
	c0.152,0.092,0.292,0.176,0.45,0.26c0,0-0.182,0.058-0.493,0.08c-1.273,0.083-4.76-0.483-7.422-8.433c0,0-0.698,11.252,6.782,13.083
	L80.25,48.802c-0.154,1.217,0.094,2.381,0.739,3.495c0.645,1.114,1.623,2.088,2.938,2.922c1.32,0.839,2.872,1.494,4.681,1.976
	c1.802,0.48,3.78,0.718,5.945,0.718h3.691c1.827,2.071,4.164,3.773,7.135,4.623c0,0-1.874-1.829-3.748-4.623
	c-1.463-2.167-2.927-4.923-3.509-7.856c-0.711-3.592-0.867-7.515,3.416-10.836c0,0,3.79-2.589,9.548-5.611
	C115.442,31.321,120.452,26.727,120.391,24.367z"/>
<path fill="#FFFFFF" d="M97.789,30.258c-0.782,0-1.412-0.655-1.412-1.465c0-0.814,0.63-1.468,1.412-1.468
	c0.781,0,1.413,0.654,1.413,1.468C99.202,29.603,98.57,30.258,97.789,30.258z"/>
<path fill="#FFFFFF" d="M99.939,29.965c1.832-2.438,0.606-3.453-0.841-3.918c-4.16-1.091-6.953,2.726-6.953,2.726
	c3.116-6.167,8.305-3.313,8.305-3.313C103.695,27.539,99.939,29.965,99.939,29.965z"/>
<path fill="#FFFFFF" d="M101.859,31.541c0,0,1.163-0.368,2.102-2.2c0,0,6.671,0.614,13.508-2.568
	C117.469,26.772,109.822,31.153,101.859,31.541z"/>
</svg>
